#!OML:ASF F:\VICON\USERDATA\INSTALL\rory3\rory3.ASF
:FULLY-SPECIFIED
:DEGREES
412
root 0.366468 16.6212 4.49084 -6.79941 -60.1846 21.6336
lowerback -4.31045 1.7013 2.58385
upperback -0.513318 2.17049 -1.40655
thorax 2.03872 1.10764 -2.76412
lowerneck -9.41784 3.89481 -6.3421
upperneck 50.5807 7.12066 -2.41949
head 22.9504 0.491698 1.05885
rclavicle -6.83819e-014 -1.59028e-014
rhumerus -32.5724 35.021 -82.0802
rradius 79.3059
rwrist -36.1776
rhand 1.12836 -38.7688
rfingers 7.12502
rthumb 26.6707 -66.9097
lclavicle -6.83819e-014 -1.59028e-014
lhumerus 34.0839 -28.4226 35.7684
lradius 97.2272
lwrist 44.8948
lhand -11.4689 -21.229
lfingers 7.12502
lthumb 14.5688 8.2394
rfemur -47.8521 8.18597 2.88527
rtibia 73.1662
rfoot -5.21263 -13.3809
rtoes -31.5415
lfemur -29.5164 -10.3425 -37.3404
ltibia 38.1705
lfoot -19.028 1.98645
ltoes 15.6368
413
root 0.367294 16.6181 4.49083 -6.64699 -60.0963 21.5926
lowerback -4.39104 1.78716 2.65508
upperback -0.467286 2.28224 -1.51523
thorax 2.14616 1.16677 -2.90577
lowerneck -9.56154 3.72706 -6.55931
upperneck 50.759 6.75962 -2.04456
head 23.1375 0.343085 1.24189
rclavicle -3.97569e-015 4.77083e-015
rhumerus -32.6786 34.8354 -82.5239
rradius 79.0905
rwrist -35.9697
rhand 0.313493 -39.0433
rfingers 7.12502
rthumb 25.8906 -67.3006
lclavicle -3.97569e-015 4.77083e-015
lhumerus 34.165 -29.0052 36.0037
lradius 97.2488
lwrist 44.7629
lhand -11.8837 -21.6621
lfingers 7.12502
lthumb 14.1691 7.8347
rfemur -48.0156 8.09826 2.87549
rtibia 73.2523
rfoot -5.02567 -13.3994
rtoes -32.0104
lfemur -29.6758 -10.5033 -37.2004
ltibia 38.2286
lfoot -18.9793 1.32513
ltoes 17.4829
414
root 0.367265 16.6159 4.48499 -6.44924 -60.1247 21.4813
lowerback -4.38134 1.82722 2.63321
upperback -0.473126 2.33651 -1.49292
thorax 2.13675 1.19337 -2.86719
lowerneck -9.56589 3.67049 -6.76114
upperneck 50.8539 6.67528 -1.9297
head 23.2142 0.277789 1.32771
rclavicle -6.36111e-015 -1.43125e-014
rhumerus -32.7291 34.9238 -82.934
rradius 78.7256
rwrist -35.644
rhand 0.167544 -38.9114
rfingers 7.12502
rthumb 25.7508 -67.189
lclavicle -6.36111e-015 -1.43125e-014
lhumerus 33.9326 -29.4821 36.4491
lradius 97.1645
lwrist 44.4758
lhand -12.1072 -22.1251
lfingers 7.12502
lthumb 13.9537 7.38666
rfemur -48.2096 8.17107 2.9617
rtibia 73.3229
rfoot -4.30174 -13.7837
rtoes -33.0819
lfemur -29.8899 -10.2554 -37.1907
ltibia 38.3057
lfoot -18.9876 1.36147
ltoes 16.8364
415
root 0.376149 16.6118 4.49086 -6.23312 -59.5106 21.2027
lowerback -4.16513 1.62677 2.77242
upperback -0.480922 2.0673 -1.46226
thorax 1.99243 1.05789 -2.93782
lowerneck -9.46274 3.7084 -6.81322
upperneck 50.8602 6.76443 -1.98281
head 23.179 0.29756 1.32257
rclavicle -3.85642e-014 2.38542e-014
rhumerus -32.8277 35.0869 -83.3535
rradius 78.3558
rwrist -35.4784
rhand -0.114299 -39.2708
rfingers 7.12502
rthumb 25.4809 -67.5872
lclavicle -3.85642e-014 2.38542e-014
lhumerus 33.5103 -29.9281 37.016
lradius 97.1549
lwrist 44.3245
lhand -12.5738 -22.0677
lfingers 7.12502
lthumb 13.504 7.47447
rfemur -48.035 7.57403 3.08858
rtibia 73.4171
rfoot -3.6492 -14.0281
rtoes -34.4369
lfemur -29.8426 -10.4556 -37.3126
ltibia 38.3613
lfoot -18.9288 1.44561
ltoes 15.0768
416
root 0.374247 16.6071 4.48874 -6.36467 -59.5658 21.3869
lowerback -4.12098 1.6448 2.5811
upperback -0.450662 2.101 -1.45411
thorax 1.99406 1.07362 -2.82041
lowerneck -9.35669 3.74892 -6.71863
upperneck 50.8124 6.85945 -2.13784
head 23.109 0.341465 1.23409
rclavicle 6.26172e-014 -1.27222e-014
rhumerus -33.0453 35.3822 -83.7401
rradius 78.271
rwrist -35.3401
rhand -1.94898 -40.1254
rfingers 7.12502
rthumb 23.7223 -68.6813
lclavicle 6.26172e-014 -1.27222e-014
lhumerus 33.1055 -30.3465 37.4748
lradius 97.2688
lwrist 44.6499
lhand -13.0549 -21.633
lfingers 7.12502
lthumb 13.0403 7.93935
rfemur -48.1338 7.73099 2.93812
rtibia 73.5236
rfoot -3.89557 -13.9856
rtoes -33.9
lfemur -29.9321 -10.2696 -37.3953
ltibia 38.4345
lfoot -18.954 1.18704
ltoes 15.1761
417
root 0.372229 16.6031 4.49072 -6.62474 -59.4594 21.6918
lowerback -4.11452 1.70237 2.42917
upperback -0.384607 2.18657 -1.52901
thorax 2.06157 1.11729 -2.80597
lowerneck -9.30574 3.66974 -6.62215
upperneck 50.8404 6.75766 -2.26966
head 23.1441 0.308806 1.12141
rclavicle 9.93923e-015 1.59028e-015
rhumerus -33.4435 35.499 -83.9947
rradius 78.3885
rwrist -35.0346
rhand -0.879265 -38.8129
rfingers 7.12502
rthumb 24.7479 -67.232
lclavicle 9.93923e-015 1.59028e-015
lhumerus 32.9768 -30.8756 37.9208
lradius 97.2739
lwrist 44.7479
lhand -13.166 -21.4658
lfingers 7.12502
lthumb 12.9331 8.11341
rfemur -48.1006 7.87175 2.50478
rtibia 73.7021
rfoot -5.76852 -13.4968
rtoes -29.4966
lfemur -29.95 -10.2482 -37.5874
ltibia 38.5066
lfoot -18.9726 1.03586
ltoes 15.727
418
root 0.373552 16.5972 4.49384 -6.36763 -59.316 21.4327
lowerback -4.0366 1.74237 2.57857
upperback -0.38866 2.23488 -1.52033
thorax 2.02243 1.14222 -2.8803
lowerneck -9.33338 3.59231 -6.76566
upperneck 51.0259 6.5928 -2.08614
head 23.3198 0.22666 1.21908
rclavicle 5.96354e-015 3.18055e-015
rhumerus -33.8685 35.5159 -84.3119
rradius 78.416
rwrist -34.7555
rhand -1.2938 -39.6615
rfingers 7.12502
rthumb 24.3506 -68.1346
lclavicle 5.96354e-015 3.18055e-015
lhumerus 32.7606 -31.3982 38.5008
lradius 97.2524
lwrist 44.4445
lhand -12.9603 -21.4896
lfingers 7.12502
lthumb 13.1315 8.07695
rfemur -48.1209 7.62358 2.71754
rtibia 73.718
rfoot -4.90801 -13.8043
rtoes -31.878
lfemur -30.0119 -10.5117 -37.4054
ltibia 38.6371
lfoot -18.9599 0.960994
ltoes 15.9161
419
root 0.37501 16.5929 4.49586 -5.88471 -59.2384 20.9198
lowerback -3.98662 1.77001 2.88048
upperback -0.387906 2.25911 -1.48454
thorax 2.0072 1.15671 -3.01309
lowerneck -9.37707 3.54906 -6.96813
upperneck 51.1655 6.45311 -1.79299
head 23.4397 0.157652 1.39662
rclavicle 1.78906e-014 1.74931e-014
rhumerus -33.5195 35.2018 -84.7833
rradius 77.4361
rwrist -34.4295
rhand -0.251699 -38.2305
rfingers 7.12502
rthumb 25.3493 -66.5657
lclavicle 1.78906e-014 1.74931e-014
lhumerus 32.4993 -31.9287 38.8853
lradius 97.4702
lwrist 44.5016
lhand -13.0881 -21.4256
lfingers 7.12502
lthumb 13.0082 8.14879
rfemur -48.0911 7.66615 2.8832
rtibia 73.7774
rfoot -5.83528 -13.5885
rtoes -29.6934
lfemur -30.1089 -10.6918 -37.0797
ltibia 38.7916
lfoot -18.9532 0.78268
ltoes 15.8324
420
root 0.373821 16.5878 4.49845 -5.69601 -59.2025 20.6974
lowerback -3.95972 1.86105 3.04757
upperback -0.319505 2.3754 -1.54326
thorax 2.08065 1.21901 -3.15999
lowerneck -9.38645 3.47125 -6.90253
upperneck 51.1451 6.27176 -1.69989
head 23.4216 0.120233 1.40311
rclavicle 6.55989e-014 -9.54166e-015
rhumerus -33.6218 35.0192 -85.2685
rradius 77.2071
rwrist -34.5341
rhand -1.34985 -38.7693
rfingers 7.12502
rthumb 24.2968 -67.2495
lclavicle 6.55989e-014 -9.54166e-015
lhumerus 32.4938 -32.5594 39.1178
lradius 97.5834
lwrist 44.846
lhand -13.953 -21.7321
lfingers 7.12502
lthumb 12.1744 7.89362
rfemur -48.0937 7.67633 3.08349
rtibia 73.7671
rfoot -5.00363 -13.964
rtoes -31.7416
lfemur -30.1981 -10.4632 -37.1044
ltibia 38.9672
lfoot -19.0824 1.03092
ltoes 14.2859
421
root 0.371795 16.5854 4.50304 -5.6422 -59.1659 20.5971
lowerback -3.91514 1.98747 3.14932
upperback -0.225262 2.54354 -1.65934
thorax 2.17583 1.30794 -3.32614
lowerneck -9.39615 3.35277 -6.64867
upperneck 51.0975 6.0331 -1.74788
head 23.4048 0.0855594 1.2828
rclavicle 1.47101e-014 1.43125e-014
rhumerus -33.9718 34.7925 -85.6754
rradius 77.3565
rwrist -34.6265
rhand -4.34091 -43.6919
rfingers 7.12502
rthumb 21.4266 -72.527
lclavicle 1.47101e-014 1.43125e-014
lhumerus 32.5816 -33.1278 39.4882
lradius 97.3846
lwrist 44.9
lhand -14.0298 -22.4569
lfingers 7.12502
lthumb 12.1004 7.17326
rfemur -47.9972 7.70058 3.10132
rtibia 73.7958
rfoot -5.41737 -13.9381
rtoes -30.7209
lfemur -30.2172 -10.2614 -37.1852
ltibia 39.0883
lfoot -19.2051 1.23435
ltoes 13.2907
422
root 0.371565 16.5832 4.50731 -5.58081 -59.0257 20.5082
lowerback -3.83756 2.0892 3.23185
upperback -0.169599 2.67973 -1.73555
thorax 2.20849 1.37893 -3.44417
lowerneck -9.29283 3.26492 -6.4494
upperneck 51.0733 5.8863 -1.88032
head 23.3679 0.0651187 1.14016
rclavicle -2.48481e-014 -4.77083e-015
rhumerus -34.2368 34.4621 -85.9703
rradius 77.2958
rwrist -34.5017
rhand -2.40192 -40.7498
rfingers 7.12502
rthumb 23.2879 -69.3614
lclavicle -2.48481e-014 -4.77083e-015
lhumerus 32.5674 -33.652 40.0647
lradius 97.1626
lwrist 44.3128
lhand -13.2734 -22.5589
lfingers 7.12502
lthumb 12.8296 7.02683
rfemur -47.9208 7.50056 3.17848
rtibia 73.8225
rfoot -5.33861 -14.0413
rtoes -30.8597
lfemur -30.183 -10.3681 -37.181
ltibia 39.1208
lfoot -19.1776 1.17916
ltoes 13.6059
423
root 0.369032 16.582 4.51554 -5.63517 -58.8257 20.5639
lowerback -3.8538 2.13296 3.26258
upperback -0.122212 2.73661 -1.74279
thorax 2.27313 1.40975 -3.46367
lowerneck -9.11562 3.23628 -6.59547
upperneck 51.0834 5.87388 -1.88774
head 23.3003 0.0382499 1.1587
rclavicle 1.15295e-013 -3.49861e-014
rhumerus -34.4594 34.3928 -86.192
rradius 77.1329
rwrist -34.3527
rhand -2.14142 -40.5079
rfingers 7.12502
rthumb 23.5377 -69.0876
lclavicle 1.15295e-013 -3.49861e-014
lhumerus 32.3143 -34.1534 40.7804
lradius 96.9899
lwrist 43.5033
lhand -13.189 -22.4771
lfingers 7.12502
lthumb 12.911 7.10346
rfemur -47.8372 7.16252 3.21514
rtibia 73.8357
rfoot -4.87973 -14.1512
rtoes -32.3836
lfemur -30.0842 -10.634 -37.29
ltibia 39.1276
lfoot -19.1565 1.39478
ltoes 13.3863
